<svg xmlns="http://www.w3.org/2000/svg" xml:space="preserve" width="2000" height="140" data-id="lg_GPKkCv07C5xXTTyORz" data-version="1" viewBox="0 0 2000 140"><g data-padding="20"><g transform="translate(10 2.5)scale(.96429)"><g transform="matrix(.9 0 0 .9 260.25 400)"><linearGradient id="a" x1="0" x2="1" y1="0" y2="0" gradientUnits="objectBoundingBox"><stop offset="0%" stop-color="#ff6cab"/><stop offset="100%" stop-color="#7366ff"/></linearGradient><rect width="311.269" height="155.799" x="540.612" y="-444.472" fill="url(#a)" paint-order="stroke" rx="19" ry="19"/></g><g transform="matrix(-.9 0 0 -.9 539.84 399.83)"><linearGradient id="b" x1="0" x2="1" y1="0" y2="0" gradientUnits="objectBoundingBox"><stop offset="0%" stop-color="#ff6cab"/><stop offset="100%" stop-color="#7366ff"/></linearGradient><rect width="311.269" height="155.799" x="-851.88" y="288.672" fill="url(#b)" paint-order="stroke" rx="19" ry="19"/></g><rect width="100.214" height="111.87" x="576.515" y="-385.85" fill="none" rx="0" ry="0" transform="translate(399.02 400.43)"/><path fill="#fff" d="m1029.762 101.115-4.59-16.14h-21.94l-4.55 16.14h-6.48l20.31-69.32h3.28l20.4 69.32Zm-15.75-54.04-9.09 31.95h18.61l-9.14-31.95-.19-2.56Zm37.5-7.35h-6.91v-7.93h6.91Zm-.49 61.39h-5.94v-49.5h5.94Z"/></g><path fill="transparent" stroke="transparent" d="M720 0h560v140H720z"/></g></svg>