<svg xmlns="http://www.w3.org/2000/svg" xml:space="preserve" width="2000" height="1500" data-id="lg_ELYL9zjS6jr7kyqqIW" data-version="1" viewBox="0 0 2000 1500"><path fill="#ff683c" stroke="transparent" d="M0 0h2000v1500H0z"/><g data-padding="20"><g transform="translate(-1497.197 -1120.469)scale(2.4267)"><rect width="255" height="336.74" x="486.545" y="218.198" fill="none" rx="0" ry="0" transform="translate(550.82 399.81)"/><path fill="#fff" d="M1154.325 844.418q0 6.86-1.19 11.92 1.19 4.77 1.19 11.92 0 6.86-1.19 11.92h-23.84q-1.19-5.06-1.19-11.92 0-7.15 1.19-11.92-1.19-5.06-1.19-11.92 0-7.15 1.19-11.92h-47.68q1.19 4.77 1.19 11.92 0 6.86-1.19 11.92 1.19 4.77 1.19 11.92 0 6.86-1.19 11.92h-23.84q-1.19-5.06-1.19-11.92 0-7.15 1.19-11.92-1.19-5.06-1.19-11.92 0-7.15 1.19-11.92h8.94q-1.19-5.06-1.19-11.92 0-7.15 1.19-11.92-1.19-5.06-1.19-11.92 0-7.15 1.19-11.92h5.96q-1.19-5.06-1.19-11.92 0-7.15 1.19-11.92h8.94q-1.19-5.06-1.19-11.92 0-7.15 1.19-11.92h5.96q-1.19-5.06-1.19-11.92 0-7.15 1.19-11.92h35.76q1.19 4.77 1.19 11.92 0 6.86-1.19 11.92h5.96q1.19 4.77 1.19 11.92 0 6.86-1.19 11.92h8.94q1.19 4.77 1.19 11.92 0 6.86-1.19 11.92h5.96q1.19 4.77 1.19 11.92 0 6.86-1.19 11.92 1.19 4.77 1.19 11.92 0 6.86-1.19 11.92h8.94q1.19 4.77 1.19 11.92m-33.97-35.76q-1.19-5.06-1.19-11.92 0-7.15 1.19-11.92h-5.96q-1.19-5.06-1.19-11.92 0-7.15 1.19-11.92h-17.88q1.19 4.77 1.19 11.92 0 6.86-1.19 11.92h-5.96q1.19 4.77 1.19 11.92 0 6.86-1.19 11.92Zm116.22 47.68h17.88q1.19 4.77 1.19 11.92 0 6.86-1.19 11.92h-59.6q-1.19-5.06-1.19-11.92 0-7.15 1.19-11.92h17.88q-1.19-5.06-1.19-11.92 0-7.15 1.19-11.92-1.19-5.06-1.19-11.92 0-7.15 1.19-11.92-1.19-5.06-1.19-11.92 0-7.15 1.19-11.92-1.19-5.06-1.19-11.92 0-7.15 1.19-11.92-1.19-5.06-1.19-11.92 0-7.15 1.19-11.92h-17.88q-1.19-5.06-1.19-11.92 0-7.15 1.19-11.92h59.6q1.19 4.77 1.19 11.92 0 6.86-1.19 11.92h-17.88q1.19 4.77 1.19 11.92 0 6.86-1.19 11.92 1.19 4.77 1.19 11.92 0 6.86-1.19 11.92 1.19 4.77 1.19 11.92 0 6.86-1.19 11.92 1.19 4.77 1.19 11.92 0 6.86-1.19 11.92 1.19 4.77 1.19 11.92 0 6.86-1.19 11.92"/><path fill="#fff" d="M1211.627 635.014v-87.168H765.742v445.885h445.885v-87.168h-7.26v79.908H773.002V555.106h431.365v79.908Z"/></g><path fill="transparent" stroke="transparent" stroke-width="2.522" d="M335.342 187.5h1329.316v1125H335.342z"/></g></svg>